<svg width="13" height="14" viewBox="0 0 13 14" fill="none" xmlns="http://www.w3.org/2000/svg">
<path d="M9.16691 3.1669C9.16691 3.87414 8.88596 4.55242 8.38586 5.05251C7.88577 5.55261 7.20749 5.83356 6.50024 5.83356C5.793 5.83356 5.11472 5.55261 4.61463 5.05251C4.11453 4.55242 3.83358 3.87414 3.83358 3.1669M0.500244 1.21134L0.500244 11.0336C0.500244 11.7803 0.500244 12.1537 0.645569 12.4389C0.7734 12.6898 0.977374 12.8937 1.22826 13.0216C1.51347 13.1669 1.88684 13.1669 2.63358 13.1669L10.3669 13.1669C11.1136 13.1669 11.487 13.1669 11.7722 13.0216C12.0231 12.8937 12.2271 12.6898 12.3549 12.4389C12.5002 12.1537 12.5002 11.7803 12.5002 11.0336V1.21134C12.5002 1.01482 12.5002 0.916557 12.473 0.837444C12.4229 0.691918 12.3086 0.577579 12.163 0.52747C12.0839 0.500229 11.9857 0.500229 11.7891 0.500229H1.21135C1.01483 0.500229 0.916573 0.500229 0.83746 0.52747C0.691933 0.577578 0.577594 0.691918 0.527485 0.837445C0.500244 0.916558 0.500244 1.01482 0.500244 1.21134Z" stroke="white" stroke-linecap="square" stroke-linejoin="round"/>
</svg>
